HIERARCHY
ROOT hip
{
	OFFSET 0.000000 0.000000 0.000000 
	CHANNELS 6 Xposition Yposition Zposition Xrotation Zrotation Yrotation
	JOINT abdomen
	{
		OFFSET 0.000000 3.402643 0.000000 
		CHANNELS 3 Xrotation Zrotation Yrotation
		JOINT chest
		{
			OFFSET 0.000000 8.438565 -0.680529 
			CHANNELS 3 Xrotation Zrotation Yrotation
			JOINT neck
			{
				OFFSET 0.000000 10.207942 -0.272212 
				CHANNELS 3 Xrotation Zrotation Yrotation
				JOINT head
				{
					OFFSET 0.000000 3.130431 0.000000 
					CHANNELS 3 Xrotation Zrotation Yrotation
					End Site
					{
						OFFSET 0.000000 3.130435 0.000000 
					}
				}
			}
			JOINT lCollar
			{
				OFFSET 3.470700 6.669187 -0.816635 
				CHANNELS 3 Yrotation Zrotation Xrotation
				JOINT lShldr
				{
					OFFSET 3.198488 0.000000 0.000000 
					CHANNELS 3 Zrotation Yrotation Xrotation
					JOINT lForeArm
					{
						OFFSET 10.139888 0.000000 0.000000 
						CHANNELS 3 Yrotation Zrotation Xrotation
						JOINT lHand
						{
							OFFSET 8.370511 0.000000 0.000000 
							CHANNELS 3 Zrotation Yrotation Xrotation
							End Site
							{
								OFFSET 4.083176 0.000000 0.000000 
							}
						}
					}
				}
			}
			JOINT rCollar
			{
				OFFSET -3.470700 6.669187 -0.816635 
				CHANNELS 3 Yrotation Zrotation Xrotation
				JOINT rShldr
				{
					OFFSET -3.198488 0.000000 0.000000 
					CHANNELS 3 Zrotation Yrotation Xrotation
					JOINT rForeArm
					{
						OFFSET -10.139888 0.000000 0.000000 
						CHANNELS 3 Yrotation Zrotation Xrotation
						JOINT rHand
						{
							OFFSET -8.370511 0.000000 0.000000 
							CHANNELS 3 Zrotation Yrotation Xrotation
							End Site
							{
								OFFSET -4.083176 0.000000 0.000000 
							}
						}
					}
				}
			}
		}
	}
	JOINT lThigh
	{
		OFFSET 5.308129 -1.633274 1.361059 
		CHANNELS 3 Xrotation Zrotation Yrotation
		JOINT lShin
		{
			OFFSET -2.041588 -20.007561 0.000000 
			CHANNELS 3 Xrotation Zrotation Yrotation
			JOINT lFoot
			{
				OFFSET 0.000000 -19.190928 -1.224953 
				CHANNELS 3 Xrotation Yrotation Zrotation
				End Site
				{
					OFFSET 0.000000 -2.449906 4.627600 
				}
			}
		}
	}
	JOINT rThigh
	{
		OFFSET -5.308129 -1.633274 1.361059 
		CHANNELS 3 Xrotation Zrotation Yrotation
		JOINT rShin
		{
			OFFSET 2.041588 -20.007561 0.000000 
			CHANNELS 3 Xrotation Zrotation Yrotation
			JOINT rFoot
			{
				OFFSET 0.000000 -19.190928 -1.224953 
				CHANNELS 3 Xrotation Yrotation Zrotation
				End Site
				{
					OFFSET 0.000000 -2.449906 4.627600 
				}
			}
		}
	}
}
MOTION
Frames: 16
Frame Time: 0.033333
-0.013101 48.133915 -0.101529 2.088053 -1.179531 8.097394 0.000000 0.000000 0.000000 9.810138 8.690886 -0.729234 12.738261 2.925726 -2.982106 13.983545 3.178913 -5.457596 -1.509863 5.548428 9.683443 -72.720673 -16.026381 6.161567 -51.117424 -2.025112 25.889816 -8.714505 0.708544 -3.249648 -1.314105 12.346947 9.667029 44.820625 17.125736 11.713841 39.690342 4.666483 14.783536 -12.885883 -1.988950 -3.641843 -14.352579 10.974122 3.834969 12.586954 -0.822648 28.281946 4.121068 -0.041995 -1.405240 -8.930355 -6.538597 -4.919820 10.545423 3.253473 -13.028324 -2.370077 -0.116736 4.079398 
-0.478501 48.174294 -0.369545 2.260762 -0.733645 8.701829 0.000000 0.000000 0.000000 10.350014 8.503281 -0.534942 13.135599 2.984241 -2.982099 13.518316 3.275480 -5.575140 -1.989740 5.497276 10.201448 -73.315865 -17.801811 7.929173 -49.761097 -2.530099 26.423613 -8.109783 0.729040 -3.269611 -1.273610 12.836486 10.136354 43.527641 19.809814 10.740760 39.954651 4.371567 15.324907 -13.048847 -1.744875 -3.665268 -13.666924 10.503613 3.408947 10.717457 -0.710605 25.390236 4.956070 -0.068540 -1.635939 -9.345100 -6.669516 -5.109300 10.584862 3.466414 -13.281940 -2.246809 -0.100391 3.411015 
-0.888717 48.196720 -0.628999 2.581964 -0.279607 9.140706 0.000000 0.000000 0.000000 10.764774 8.175512 -0.473133 13.503632 3.032976 -2.992359 13.135116 3.042615 -5.495553 -2.230487 5.286369 10.609265 -73.491730 -19.167322 9.487308 -48.629139 -3.046177 26.771608 -8.408104 0.821286 -3.269562 -1.226511 13.139633 10.519103 42.859627 22.504139 9.903575 40.821980 4.011995 14.483788 -14.211436 -1.330469 -3.733064 -13.452447 10.464890 3.073068 9.730330 -0.692436 21.969225 5.954566 -0.141671 -2.739154 -10.064069 -6.783700 -5.113971 10.779730 3.514885 -13.654434 -2.105752 -0.062845 2.919766 
-1.236554 48.236340 -0.889018 2.820214 0.327182 9.804862 0.000000 0.000000 0.000000 11.365193 7.818332 -0.723857 13.782412 2.691499 -3.049931 12.649288 3.169448 -5.408303 -2.460879 4.502091 11.172641 -73.204094 -20.746206 10.426790 -47.366783 -3.500733 27.378553 -8.834301 0.399095 -3.224158 -1.357777 12.489950 11.063911 43.055016 25.837696 8.920175 41.706295 3.372935 14.445657 -15.308718 -0.723013 -3.821895 -13.765873 10.387638 2.698682 9.691218 -0.691049 18.669477 7.302192 -0.242293 -3.827163 -10.515452 -7.166359 -5.294482 10.845583 3.590980 -13.906682 -1.962254 -0.062305 2.445622 
-1.515053 48.272064 -1.200097 2.768007 1.027526 10.470551 0.000000 0.000000 0.000000 12.191553 7.348700 -1.021520 14.440813 2.427652 -3.284093 11.854128 2.985440 -5.260997 -3.088471 3.687817 11.988271 -72.746925 -22.091858 10.797053 -46.043415 -3.924219 27.745266 -7.959110 -0.044122 -3.208344 -1.893881 12.206711 11.901103 42.456432 29.417894 7.931910 43.743053 2.320006 15.912998 -14.802738 -1.857534 -3.690860 -13.463132 10.436471 2.339876 9.220884 -0.604767 14.194733 9.335833 -0.513528 -6.357404 -10.680982 -7.654123 -5.536390 10.895498 3.554934 -14.325615 -1.739979 -0.055712 2.099885 
-1.746332 48.285503 -1.493641 2.881445 1.592472 10.785720 0.000000 0.000000 0.000000 12.999225 6.785525 -1.271230 14.694321 2.173859 -3.420321 11.782031 2.840660 -5.015694 -3.288991 3.262619 12.723161 -72.731857 -23.431898 11.141122 -44.889259 -4.260095 27.758884 -5.492203 -0.431226 -3.254958 -2.085381 11.513898 12.649769 42.309193 33.048916 6.616639 46.608868 0.949302 17.547083 -13.575102 -2.364900 -3.617141 -12.627031 10.859451 2.424671 8.012844 -0.868824 8.532129 10.363108 -0.777327 -8.544421 -11.161985 -7.997962 -5.585376 11.064008 3.437299 -14.665077 -1.485282 -0.041354 1.872983 
-1.901928 48.272030 -1.763359 3.087013 2.096845 11.355679 0.000000 0.000000 0.000000 13.708469 6.297514 -1.764648 14.895498 1.968755 -3.605411 11.495037 2.657424 -4.604160 -3.703662 3.033309 13.399946 -72.845726 -24.556231 11.212843 -43.981140 -4.379868 29.182800 -1.239639 -3.507280 -3.356858 -2.355123 10.825520 13.317042 42.064209 36.667507 5.040345 50.935444 -0.591304 17.773483 -12.440327 -3.250939 -3.510022 -11.510258 11.090182 2.798185 6.038689 -1.396027 3.772494 10.271621 -0.808469 -9.000344 -11.891273 -8.503065 -5.711354 11.657666 3.436069 -14.769616 -1.483719 -0.030584 1.719787 
-1.981800 48.248512 -2.016657 3.387013 2.332621 11.787319 0.000000 0.000000 0.000000 14.228972 6.075521 -2.036910 15.159253 1.783459 -3.663676 10.852144 2.278583 -4.348861 -4.064985 2.525313 13.895813 -72.394226 -25.439178 11.482383 -43.498070 -4.467412 30.798050 4.259877 -6.845430 -3.716312 -2.667358 10.380037 13.814162 41.435646 39.599636 2.839732 57.904030 -2.454617 17.124537 -9.172969 -6.040645 -3.329752 -10.242294 11.511412 3.106797 4.210157 -1.511023 -0.452205 10.092621 -0.947507 -10.489338 -12.603877 -8.893501 -5.758193 12.141313 3.403618 -14.777217 -1.470868 -0.036102 1.749029 
-1.984984 48.238579 -2.261337 3.553245 2.340503 11.982860 0.000000 0.000000 0.000000 14.854901 6.014972 -2.158715 15.485865 1.637571 -3.497455 10.102588 2.074569 -4.172486 -4.134358 2.341226 14.478051 -72.281143 -26.509653 11.927350 -43.476799 -4.680084 29.625023 7.680445 -6.929823 -4.030150 -2.720168 9.750880 14.390973 41.215885 42.255821 -0.629691 66.961769 -4.627389 19.000875 -2.429946 -10.531653 -3.499140 -8.863913 11.938503 3.369597 2.589229 -1.295332 -1.794067 10.076442 -1.062863 -11.703241 -12.934803 -9.019554 -5.748917 11.997416 3.405223 -14.787389 -1.135620 -0.018444 1.722630 
-1.937936 48.236549 -2.500976 3.809170 2.206523 12.011345 0.000000 0.000000 0.000000 15.422031 5.917217 -2.051399 15.864242 1.657562 -3.204326 9.163751 1.539472 -3.858651 -4.198583 2.132329 14.962042 -72.475082 -27.459597 11.768802 -43.802372 -4.734306 27.130436 7.415793 -5.799620 -3.955032 -2.760326 9.678134 14.883433 40.003716 44.785801 -4.966690 77.161964 -6.366682 23.032879 5.428444 -14.939968 -4.232682 -7.877250 12.337211 3.815355 1.773457 -1.228699 -1.011813 9.567514 -1.070707 -12.254724 -13.211307 -9.002680 -5.620241 11.381660 3.395158 -15.016673 -0.521989 -0.023782 1.643938 
-1.833086 48.230793 -2.742168 4.200306 1.881486 12.047893 0.000000 0.000000 0.000000 15.841917 5.897236 -1.951423 16.142221 1.901774 -2.950834 8.221888 0.516704 -3.330207 -4.291083 2.203779 15.352274 -73.131355 -28.560068 11.285728 -44.219872 -4.612562 23.824369 4.506256 -3.409708 -3.680571 -3.022547 9.950477 15.312925 38.051434 47.529766 -8.986342 86.584991 -7.331977 26.822088 9.382401 -17.684702 -4.902511 -7.360449 12.797141 4.416409 1.810830 -1.480582 -0.856761 7.992919 -0.948580 -12.924865 -13.528886 -8.920875 -5.493386 10.551776 3.433894 -15.354486 0.232827 -0.027196 1.596958 
-1.672975 48.247868 -2.984115 4.500793 1.554932 12.358171 0.000000 0.000000 0.000000 16.330238 5.924183 -2.081484 16.365572 2.048378 -2.775155 7.671268 -0.107293 -2.802748 -4.194275 2.161719 15.802295 -73.375549 -30.324110 11.231853 -44.946148 -4.813933 17.935253 0.679046 1.372229 -3.498555 -3.386858 9.907485 15.805993 37.458912 50.550522 -11.943516 94.317520 -7.706240 29.166475 7.964061 -19.590570 -4.889547 -6.775995 13.111560 4.955856 1.461898 -1.960905 -1.890969 5.911104 -0.700850 -12.755900 -13.381659 -8.988559 -5.559604 9.194029 3.569873 -15.752633 1.176992 0.013329 1.555084 
-1.480334 48.238125 -3.228330 4.655990 1.008789 12.961068 0.000000 0.000000 0.000000 16.845655 6.166848 -2.213329 16.775383 2.272761 -2.755998 6.677008 -0.604883 -2.519700 -4.507394 2.018147 16.302204 -72.980080 -32.405640 11.523914 -46.560928 -4.988813 12.044455 -1.955126 6.250707 -3.572774 -3.409598 9.927010 16.274786 38.575191 53.056225 -13.005137 100.323242 -7.958841 30.075628 0.783496 -20.854544 -3.867911 -6.910182 13.399299 5.442778 0.914558 -2.552592 -1.493358 5.175460 -0.555127 -11.892569 -13.208356 -8.834342 -5.510826 8.049934 3.596961 -16.515368 1.992165 0.043062 1.644513 
-1.218289 48.167164 -3.486208 4.730162 0.493239 13.760338 0.000000 0.000000 0.000000 17.310675 6.475952 -2.056158 17.130436 2.428890 -2.726712 5.997427 -0.429181 -2.783345 -5.228788 2.053777 16.766254 -72.817940 -34.716709 12.100272 -50.681969 -4.017623 11.057132 -3.318776 9.121935 -3.749430 -3.055084 10.425798 16.638441 39.985432 54.276417 -12.018374 103.811600 -8.490454 31.599422 -11.630413 -19.593111 -2.073625 -7.186653 13.162061 5.527687 -0.506994 -2.998407 0.701526 5.790479 -0.508467 -9.906252 -13.599423 -8.844642 -5.418946 8.249190 3.505508 -17.648586 2.249535 0.031544 2.063959 
-0.901938 48.110783 -3.770549 4.758202 -0.028341 14.677730 0.000000 0.000000 0.000000 17.783802 6.890005 -1.722501 17.077225 2.341156 -2.697449 6.663968 0.263203 -3.417978 -5.720864 2.485630 17.250658 -72.909111 -38.039429 13.550515 -58.048683 -2.316230 11.544631 -4.463178 11.479154 -3.929765 -2.594693 11.871052 17.021351 39.851639 54.408848 -10.123547 103.553291 -9.166241 33.777992 -25.682114 -14.942238 -1.048602 -7.224123 12.602512 5.081254 -2.104730 -2.942198 2.423911 6.143017 -0.405445 -7.579629 -13.685423 -8.979783 -5.527864 7.933634 3.509367 -18.597343 2.776543 0.064965 2.434204 
-0.527778 48.043571 -4.061298 4.641868 -0.489944 15.244653 0.000000 0.000000 0.000000 18.445686 7.017392 -1.206021 17.282070 2.516661 -2.736881 6.649072 0.165645 -3.828137 -6.073165 3.560722 17.883377 -73.990685 -42.138012 15.189104 -67.479401 -0.105010 11.647588 -6.969674 12.683531 -4.199175 -2.139642 13.401192 17.552582 39.610142 53.823193 -7.149862 97.770584 -9.666709 35.047230 -40.010902 -6.887603 -2.441318 -8.737492 12.251352 4.294468 -0.419146 -2.609691 3.910428 6.091592 -0.396645 -7.179315 -13.609750 -9.206254 -5.683141 7.611399 3.569572 -18.851051 3.300098 0.069388 2.834186 
